HIERARCHY
ROOT Hips
{
	OFFSET 0.000000 0.000000 0.000000
	CHANNELS 6 Xposition Yposition Zposition Zrotation Yrotation Xrotation 
	JOINT LHipJoint
	{
		OFFSET 0.000000 0.000000 0.000000
		CHANNELS 3 Zrotation Yrotation Xrotation
		JOINT LeftUpLeg
		{
			OFFSET 1.363060 -1.794630 0.839290
			CHANNELS 3 Zrotation Yrotation Xrotation
			JOINT LeftLeg
			{
				OFFSET 2.448110 -6.726130 0.000000
				CHANNELS 3 Zrotation Yrotation Xrotation
				JOINT LeftFoot
				{
					OFFSET 2.562200 -7.039590 0.000000
					CHANNELS 3 Zrotation Yrotation Xrotation
					JOINT LeftToeBase
					{
						OFFSET 0.157640 -0.433110 2.322550
						CHANNELS 3 Zrotation Yrotation Xrotation
						End Site
						{
							OFFSET 0.000000 0.000000 0.000000
						}
					}
				}
			}
		}
	}
	JOINT RHipJoint
	{
		OFFSET 0.000000 0.000000 0.000000
		CHANNELS 3 Zrotation Yrotation Xrotation
		JOINT RightUpLeg
		{
			OFFSET -1.305520 -1.794630 0.839290
			CHANNELS 3 Zrotation Yrotation Xrotation
			JOINT RightLeg
			{
				OFFSET -2.542530 -6.985550 0.000000
				CHANNELS 3 Zrotation Yrotation Xrotation
				JOINT RightFoot
				{
					OFFSET -2.568260 -7.056230 0.000000
					CHANNELS 3 Zrotation Yrotation Xrotation
					JOINT RightToeBase
					{
						OFFSET -0.164730 -0.452590 2.363150
						CHANNELS 3 Zrotation Yrotation Xrotation
						End Site
						{
							OFFSET 0.000000 0.000000 0.000000
						}
					}
				}
			}
		}
	}
	JOINT LowerBack
	{
		OFFSET 0.000000 0.000000 0.000000
		CHANNELS 3 Zrotation Yrotation Xrotation
		JOINT Spine
		{
			OFFSET 0.028270 2.035590 -0.193380
			CHANNELS 3 Zrotation Yrotation Xrotation
			JOINT Spine1
			{
				OFFSET 0.056720 2.048850 -0.042750
				CHANNELS 3 Zrotation Yrotation Xrotation
				JOINT Neck
				{
					OFFSET 0.000000 0.000000 0.000000
					CHANNELS 3 Zrotation Yrotation Xrotation
					JOINT Neck1
					{
						OFFSET -0.054170 1.746240 0.172020
						CHANNELS 3 Zrotation Yrotation Xrotation
						JOINT Head
						{
							OFFSET 0.104070 1.761360 -0.123970
							CHANNELS 3 Zrotation Yrotation Xrotation
							End Site
							{
								OFFSET 0.000000 0.000000 0.000000
							}
						}
					}
				}
				JOINT LeftShoulder
				{
					OFFSET 0.000000 0.000000 0.000000
					CHANNELS 3 Zrotation Yrotation Xrotation
					JOINT LeftArm
					{
						OFFSET 3.362410 1.200890 -0.311210
						CHANNELS 3 Zrotation Yrotation Xrotation
						JOINT LeftForeArm
						{
							OFFSET 4.983000 -0.000000 -0.000000
							CHANNELS 3 Zrotation Yrotation Xrotation
							JOINT LeftHand
							{
								OFFSET 3.483560 -0.000000 -0.000000
								CHANNELS 3 Zrotation Yrotation Xrotation
								JOINT LeftFingerBase
								{
									OFFSET 0.000000 0.000000 0.000000
									CHANNELS 3 Zrotation Yrotation Xrotation
									JOINT LeftHandIndex1
									{
										OFFSET 0.715260 -0.000000 -0.000000
										CHANNELS 3 Zrotation Yrotation Xrotation
										End Site
										{
											OFFSET 0.000000 0.000000 0.000000
										}
									}
								}
								JOINT LThumb
								{
									OFFSET 0.000000 0.000000 0.000000
									CHANNELS 3 Zrotation Yrotation Xrotation
									End Site
									{
										OFFSET 0.000000 0.000000 0.000000
									}
								}
							}
						}
					}
				}
				JOINT RightShoulder
				{
					OFFSET 0.000000 0.000000 0.000000
					CHANNELS 3 Zrotation Yrotation Xrotation
					JOINT RightArm
					{
						OFFSET -3.136600 1.374050 -0.404650
						CHANNELS 3 Zrotation Yrotation Xrotation
						JOINT RightForeArm
						{
							OFFSET -5.241900 -0.000000 -0.000000
							CHANNELS 3 Zrotation Yrotation Xrotation
							JOINT RightHand
							{
								OFFSET -3.444170 -0.000000 -0.000000
								CHANNELS 3 Zrotation Yrotation Xrotation
								JOINT RightFingerBase
								{
									OFFSET 0.000000 0.000000 0.000000
									CHANNELS 3 Zrotation Yrotation Xrotation
									JOINT RightHandIndex1
									{
										OFFSET -0.622530 -0.000000 -0.000000
										CHANNELS 3 Zrotation Yrotation Xrotation
										End Site
										{
											OFFSET 0.000000 0.000000 0.000000
										}
									}
								}
								JOINT RThumb
								{
									OFFSET 0.000000 0.000000 0.000000
									CHANNELS 3 Zrotation Yrotation Xrotation
									End Site
									{
										OFFSET 0.000000 0.000000 0.000000
									}
								}
							}
						}
					}
				}
			}
		}
	}
}
MOTION
Frames: 12
Frame Time: 0.016667
0.843969 17.475203 0.843969 2.959175 -10.617617 3.417645 -33.296464 15.720112 24.679464 27.034073 -8.381769 -39.169372 2.424997 -13.306214 -25.336635 -0.865920 -13.543549 30.555823 0.000000 0.000000 0.000000 2.873928 -22.697624 13.156769 1.534953 23.251823 -22.643744 38.355927 24.877747 -41.753878 -9.587714 -35.193609 56.025670 0.000000 0.000000 0.000000 33.937412 18.770439 -24.721996 -31.935375 17.832425 61.384153 1.426014 -0.913613 -18.694947 4.252642 3.860636 -11.106479 6.080888 3.261463 -24.085332 0.000000 0.000000 0.000000 0.571811 6.967736 10.927725 -71.884739 -3.928131 15.926853 4.435909 -83.888292 1.300624 -9.496743 5.691198 0.651234 -9.544672 5.652502 -0.000000 0.000000 0.000000 0.000000 0.000000 0.000000 0.000000 -3.918861 -19.148789 5.110990 68.242592 3.426244 18.477396 20.734669 70.966130 -0.118827 -2.298659 1.259590 -0.059559 -2.303915 1.257822 0.000000 0.000000 0.000000 0.000000 0.000000 0.000000 0.000000 
0.914249 17.550090 1.066580 2.703151 -13.007433 2.617423 -34.316156 15.326397 26.916000 28.755142 -6.911199 -38.350596 4.519224 -10.389511 -26.751187 -0.580149 -12.564374 29.937498 0.000000 0.000000 0.000000 0.929998 -23.467538 12.569314 4.746869 24.314873 -21.021970 40.496497 23.889068 -36.967310 -8.856727 -31.399453 53.178584 0.000000 0.000000 0.000000 36.514792 20.255218 -25.031450 -33.014242 17.403241 59.692175 3.636534 -1.677328 -16.839898 1.854210 2.009615 -6.760592 2.581948 1.213805 -9.054731 0.000000 0.000000 0.000000 -0.672752 7.359739 10.221204 -71.839669 -6.227909 17.015232 2.873703 -80.800364 -6.810864 26.959511 -32.813716 -4.691071 31.856480 -30.062515 0.000000 0.000000 0.000000 0.000000 0.000000 0.000000 0.000000 2.067515 -17.529511 3.607487 59.004412 3.782124 23.233419 7.416746 72.810886 2.619310 -1.954426 34.854854 1.200105 -2.280465 34.892126 0.000000 0.000000 0.000000 0.000000 0.000000 0.000000 0.000000 
0.986477 17.626796 1.288894 2.255716 -15.894217 2.550764 -35.415496 14.584134 28.261190 30.242358 -5.501141 -37.238137 6.512953 -7.193696 -28.041868 -0.216344 -11.466281 29.133066 0.000000 0.000000 0.000000 -1.952849 -25.222608 10.807841 11.086536 25.838790 -18.986341 42.334120 21.725664 -28.812400 -7.925900 -25.136473 47.772199 0.000000 0.000000 0.000000 39.734096 19.931657 -23.002760 -34.937009 15.461357 53.243954 3.189275 -2.049401 -14.827162 -1.948733 0.336368 -1.305356 -1.696642 -0.312003 3.970100 0.000000 0.000000 0.000000 -3.653847 10.356348 5.010389 -67.585124 -14.634905 -11.517349 -140.117814 -83.245344 174.929457 15.028846 -8.747231 -1.539515 13.803839 -8.319865 -0.000001 0.000000 0.000000 0.000000 0.000000 0.000000 0.000000 8.507967 -15.902417 3.971745 49.516461 4.284370 25.966288 -1.094040 76.873130 2.599648 -7.162316 40.320271 0.729949 -9.087331 40.063137 0.000000 0.000000 0.000000 0.000000 0.000000 0.000000 0.000000 
0.395708 17.227364 0.838412 -4.738192 -17.489426 8.645143 -19.236023 15.726468 15.682337 15.671301 -9.877247 -32.200554 4.854922 -12.218136 -29.417679 1.343394 -10.415022 27.360194 0.000000 0.000000 0.000000 1.038181 -25.888855 -0.168338 31.450817 24.476069 -10.325770 37.979794 16.077973 -17.722066 1.121942 -23.916789 31.992760 0.000000 0.000000 0.000000 13.055449 3.848553 -1.414573 2.348573 3.091819 8.419161 -6.172410 3.312529 -10.053887 -11.005251 -0.462139 9.446617 -7.723009 -1.105696 21.597794 0.000000 0.000000 0.000000 -8.932499 17.256706 -0.948664 -62.163695 -17.058158 -3.744468 17.062992 -82.990097 -17.581878 24.384618 9.257809 -6.630112 22.455896 7.714291 0.000000 0.000000 0.000000 0.000000 0.000000 0.000000 0.000000 14.775817 -12.422968 7.758429 40.755179 2.119920 27.715331 -1.993211 77.575866 3.052235 -9.097004 39.898631 0.866416 -11.150427 39.521882 0.000000 0.000000 0.000000 0.000000 0.000000 0.000000 0.000000 
-0.015425 16.955328 0.562586 -6.271940 -16.313259 5.888891 -5.280636 15.949631 9.618013 -0.776998 -11.619924 -19.268228 4.215649 -14.832197 -30.580981 1.696836 -11.894925 26.186861 0.000000 0.000000 0.000000 -3.338819 -28.612813 -16.186782 53.223151 8.989056 8.181893 21.820912 13.001470 -8.142279 14.530949 -14.952339 13.534737 0.000000 0.000000 0.000000 1.527653 2.465950 17.092707 9.361534 3.934877 -10.327168 -1.541761 3.376154 -11.514888 -12.792833 0.728310 13.587872 -6.149477 -1.719842 23.463513 0.000000 0.000000 0.000000 0.151077 21.141869 -13.426004 -57.106640 -15.927029 -10.076167 -63.467398 -56.533231 -47.722620 -2.756316 -38.593397 -29.426409 24.615394 -45.147716 -0.000000 0.000000 0.000000 0.000000 0.000000 0.000000 0.000000 12.679049 -13.758978 9.877735 39.994404 1.915281 31.829566 -1.966737 78.901250 3.051273 -11.183246 39.437621 0.750397 -13.486637 38.881412 0.000000 0.000000 0.000000 0.000000 0.000000 0.000000 0.000000 
-0.117304 16.904014 0.595131 -5.156591 -10.342228 -4.877061 -1.818609 15.035732 12.840221 -4.790987 -11.170872 -10.683755 3.371828 -18.086372 -30.454856 1.615658 -13.829778 26.243422 0.000000 0.000000 0.000000 -5.134918 -22.898747 -37.513006 58.027622 -8.561423 21.194831 -0.371911 4.583573 5.214708 20.565342 -4.723135 -6.960120 0.000000 0.000000 0.000000 -0.305924 -0.839390 27.408057 9.202249 -0.567334 -8.692256 -0.888589 -0.093387 -14.633394 -15.756935 3.291918 19.806525 -4.033952 -2.046772 22.946683 0.000000 0.000000 0.000000 0.941274 19.714904 -24.396714 -27.278876 -40.969386 17.243794 -68.171274 -0.356311 1.616111 -10.906560 0.889772 0.962916 -8.842439 -18.614906 -0.000000 0.000000 0.000000 0.000000 0.000000 0.000000 0.000000 16.416502 -11.648960 11.370020 36.999978 3.434077 33.719461 -3.661821 80.998856 2.632122 -12.635468 37.624223 0.517757 -15.000219 36.958188 0.000000 0.000000 0.000000 0.000000 0.000000 0.000000 0.000000 
-0.216911 16.852908 0.625776 -6.795858 1.331956 -10.212312 -0.091083 8.333287 10.446951 -7.268651 -10.798682 -2.602670 2.379026 -21.022432 -29.877434 1.372698 -15.647352 26.556127 0.000000 0.000000 0.000000 -6.128089 -1.234746 -52.393818 44.385171 -11.049513 20.243862 -0.006617 -11.172023 23.507261 25.589174 -7.443952 -26.768231 0.000000 0.000000 0.000000 -2.188750 -6.563709 35.593172 7.248630 -5.945190 -9.021307 5.618889 -4.721129 -13.745372 -13.468701 2.971332 15.858606 -1.566681 0.610435 14.233936 0.000000 0.000000 0.000000 1.754288 11.940798 -25.912534 -10.567044 -49.979228 16.912400 -89.358536 22.739640 0.674026 0.394123 4.230331 -6.007748 -7.592990 -20.400503 -0.000000 0.000000 0.000000 0.000000 0.000000 0.000000 0.000000 19.987976 -7.593778 11.886631 31.103033 4.368054 31.927739 -5.330585 83.328172 2.003899 -14.086748 36.084619 0.202138 -16.503823 35.302409 0.000000 0.000000 0.000000 0.000000 0.000000 0.000000 0.000000 
-0.233332 16.860831 0.738458 -6.289223 5.278390 -9.681270 -1.027661 5.366759 8.417846 -8.777692 -10.545201 -0.460179 2.401236 -21.934608 -29.756861 1.310422 -16.330492 26.257201 0.000000 0.000000 0.000000 -8.188952 8.106497 -55.385224 35.092050 -10.302409 17.537588 4.353092 -18.222855 30.474466 26.770267 -8.010466 -31.573183 0.000000 0.000000 0.000000 2.102397 -8.937595 40.765441 9.418398 -4.222004 -15.831799 3.551141 -3.183748 -21.050439 -10.375905 19.128506 9.214109 0.635345 15.442956 6.281562 0.000000 0.000000 0.000000 -0.304103 7.539104 -40.430932 -8.454564 -34.454490 -13.776817 -56.837363 27.390353 -46.110076 -66.214769 -33.158226 -31.796231 -174.269601 -74.195571 -180.000000 0.000000 0.000000 0.000000 0.000000 0.000000 0.000000 19.018528 -16.734705 11.837028 32.039823 2.719307 33.546940 -6.644638 86.613260 2.672752 -14.129006 34.700214 0.733254 -15.882945 34.107702 0.000000 0.000000 0.000000 0.000000 0.000000 0.000000 0.000000 
-0.247117 16.869404 0.850824 -7.699380 8.303597 -10.047560 -0.296706 2.727886 6.576878 -9.046050 -10.067916 1.772623 2.321670 -22.712817 -29.543248 1.497368 -16.727198 25.426476 0.000000 0.000000 0.000000 -8.857740 15.129434 -56.077009 27.091325 -9.975248 14.522409 7.883975 -24.271044 35.720423 27.788885 -8.911853 -33.203409 0.000000 0.000000 0.000000 1.226858 -9.718611 41.498936 10.051128 -3.409184 -21.084650 8.975449 -3.279609 -21.431931 1.564675 31.310726 16.315032 15.038605 28.465922 4.836191 0.000000 0.000000 0.000000 -1.467516 -8.041262 -62.897490 -25.920987 -12.473262 -59.505709 -12.081794 58.113649 -154.494374 16.782259 -42.471907 2.293657 75.625320 -82.855898 0.000000 0.000000 0.000000 0.000000 0.000000 0.000000 0.000000 14.477905 -18.218047 13.716913 30.103400 0.604688 32.691041 -8.287722 87.499203 3.014997 -14.249733 33.420204 1.047287 -15.539958 32.957326 0.000000 0.000000 0.000000 0.000000 0.000000 0.000000 0.000000 
-0.249982 16.884859 0.972207 -9.738112 11.085566 -11.568864 1.064836 0.572295 5.581121 -8.637267 -9.758938 3.959733 2.045902 -23.128507 -29.060851 1.615078 -16.863736 24.617372 0.000000 0.000000 0.000000 -8.537641 18.099741 -55.045343 22.371992 -9.951690 12.362088 9.612370 -28.378194 39.257509 28.340934 -9.881759 -32.946920 0.000000 0.000000 0.000000 -2.285740 -7.024414 38.180754 8.195640 -2.273313 -21.033703 18.074260 -5.721639 6.849742 16.552700 22.291215 11.447129 31.929601 28.378898 2.408817 0.000000 0.000000 0.000000 -12.472037 -9.289330 -28.254871 13.975751 -49.502981 5.400743 -55.740605 -6.979845 47.993555 14.930446 44.428992 18.965607 64.823518 6.712267 -0.000000 0.000000 0.000000 0.000000 0.000000 0.000000 0.000000 15.314236 -13.199469 2.519883 25.166379 7.094730 21.831819 -8.920025 86.124787 1.524422 -15.475119 33.245761 0.167714 -17.366024 32.514134 0.000000 0.000000 0.000000 0.000000 0.000000 0.000000 0.000000 
-0.252677 16.899661 1.091719 -8.874639 10.842516 -10.081411 0.843580 -0.291828 4.001026 -9.399261 -8.911460 4.789303 2.249121 -23.766959 -29.288197 1.917504 -16.772498 23.931877 0.000000 0.000000 0.000000 -9.121770 21.671891 -56.050071 18.689963 -8.954051 10.494376 10.055190 -31.631562 42.929210 28.651200 -11.094179 -32.032138 0.000000 0.000000 0.000000 -0.300217 -11.069669 42.107345 4.020390 -4.422787 -29.182979 12.496490 -9.857777 -3.968215 7.251638 6.152068 1.344348 22.376742 5.543921 4.042349 0.000000 0.000000 0.000000 -9.000825 -15.304289 -21.492876 20.376269 -20.485800 25.116613 -66.889837 -10.516006 161.029133 57.358859 83.874205 -121.412691 20.283289 5.008000 -0.000001 0.000000 0.000000 0.000000 0.000000 0.000000 0.000000 16.473422 -13.048250 9.869874 25.247174 3.775957 25.724225 -9.740495 87.062296 1.157132 -16.449541 33.669078 -0.023990 -18.443549 32.837986 0.000000 0.000000 0.000000 0.000000 0.000000 0.000000 0.000000 
-0.235191 16.928338 1.230291 -8.439720 10.682110 -10.121737 0.823622 -0.475236 4.034393 -9.829993 -8.766346 5.388101 2.233971 -23.570577 -28.883646 1.902519 -17.119061 22.841646 0.000000 0.000000 0.000000 -9.135116 22.036402 -55.682091 18.291243 -8.818412 10.423884 10.157990 -32.148847 43.901937 28.348557 -10.867171 -32.091610 0.000000 0.000000 0.000000 0.138804 -11.219754 41.661888 4.098350 -4.360357 -29.851539 11.764918 -9.339343 -5.082602 7.350408 6.871076 3.828619 24.002239 6.506659 3.483062 0.000000 0.000000 0.000000 -9.109154 -15.933095 -26.396501 16.514927 -19.573006 17.114961 -66.105335 -2.723876 138.856126 21.502028 83.056083 -94.460496 38.155437 38.618032 -0.000001 0.000000 0.000000 0.000000 0.000000 0.000000 0.000000 15.756892 -13.962640 10.884460 26.140980 3.095694 26.434199 -9.797492 87.372616 1.210913 -16.423264 33.656958 0.012246 -18.382968 32.838504 0.000000 0.000000 0.000000 0.000000 0.000000 0.000000 0.000000 
